<svg width="1339" height="272" viewBox="0 0 1339 272" fill="none" xmlns="http://www.w3.org/2000/svg">
<path d="M503.39 120.973V170.277C501.454 172.613 498.463 175.148 494.418 177.882C490.374 180.56 485.161 182.867 478.781 184.804C472.401 186.741 464.682 187.709 455.624 187.709C447.592 187.709 440.272 186.399 433.664 183.778C427.056 181.101 421.359 177.199 416.574 172.072C411.846 166.945 408.2 160.679 405.636 153.273C403.073 145.81 401.791 137.294 401.791 127.724V119.948C401.791 110.377 403.016 101.861 405.466 94.3984C407.972 86.9359 411.532 80.6411 416.147 75.5142C420.761 70.3872 426.258 66.485 432.638 63.8076C439.019 61.1302 446.111 59.7915 453.915 59.7915C464.739 59.7915 473.626 61.5575 480.575 65.0894C487.525 68.5643 492.823 73.4064 496.469 79.6157C500.172 85.7681 502.45 92.8319 503.305 100.807H478.439C477.813 96.5916 476.616 92.9173 474.85 89.7842C473.084 86.651 470.549 84.2015 467.245 82.4355C463.998 80.6696 459.783 79.7866 454.599 79.7866C450.326 79.7866 446.51 80.6696 443.149 82.4355C439.845 84.1445 437.053 86.6795 434.775 90.0405C432.496 93.4015 430.759 97.5601 429.562 102.516C428.366 107.472 427.768 113.226 427.768 119.777V127.724C427.768 134.218 428.394 139.971 429.648 144.984C430.901 149.94 432.752 154.127 435.202 157.545C437.708 160.906 440.785 163.441 444.43 165.15C448.076 166.859 452.32 167.714 457.162 167.714C461.207 167.714 464.568 167.372 467.245 166.688C469.98 166.005 472.173 165.179 473.825 164.21C475.534 163.185 476.844 162.217 477.756 161.305V139.259H454.343V120.973H503.39ZM547.14 113.71V186H522.531V93.5439H545.688L547.14 113.71ZM574.997 92.9458L574.57 115.761C573.373 115.59 571.921 115.447 570.212 115.333C568.56 115.163 567.05 115.077 565.683 115.077C562.208 115.077 559.189 115.533 556.625 116.444C554.119 117.299 552.011 118.581 550.302 120.29C548.65 121.999 547.397 124.078 546.542 126.527C545.745 128.977 545.289 131.768 545.175 134.901L540.219 133.363C540.219 127.382 540.817 121.885 542.013 116.872C543.21 111.802 544.947 107.387 547.226 103.627C549.561 99.8672 552.41 96.9619 555.771 94.9111C559.132 92.8604 562.977 91.835 567.306 91.835C568.674 91.835 570.069 91.9489 571.493 92.1768C572.918 92.3477 574.085 92.604 574.997 92.9458ZM633.615 165.15V123.964C633.615 121.002 633.131 118.467 632.162 116.359C631.194 114.194 629.684 112.514 627.634 111.317C625.64 110.121 623.048 109.523 619.858 109.523C617.123 109.523 614.759 110.007 612.765 110.976C610.772 111.887 609.233 113.226 608.151 114.992C607.069 116.701 606.528 118.723 606.528 121.059H581.918C581.918 117.128 582.83 113.397 584.653 109.865C586.476 106.333 589.124 103.228 592.599 100.551C596.074 97.8164 600.204 95.6802 604.99 94.1421C609.832 92.604 615.243 91.835 621.225 91.835C628.403 91.835 634.783 93.0312 640.365 95.4238C645.948 97.8164 650.335 101.405 653.525 106.19C656.772 110.976 658.395 116.957 658.395 124.135V163.698C658.395 168.768 658.709 172.926 659.335 176.173C659.962 179.363 660.873 182.155 662.07 184.547V186H637.204C636.008 183.493 635.096 180.36 634.469 176.601C633.9 172.784 633.615 168.967 633.615 165.15ZM636.862 129.689L637.033 143.617H623.276C620.029 143.617 617.209 143.987 614.816 144.728C612.424 145.469 610.458 146.522 608.92 147.89C607.382 149.2 606.243 150.738 605.502 152.504C604.819 154.27 604.477 156.207 604.477 158.314C604.477 160.422 604.961 162.331 605.929 164.04C606.898 165.692 608.294 167.002 610.116 167.97C611.939 168.882 614.076 169.337 616.525 169.337C620.228 169.337 623.447 168.597 626.181 167.116C628.915 165.635 631.023 163.812 632.504 161.647C634.042 159.482 634.84 157.431 634.897 155.495L641.391 165.919C640.479 168.255 639.226 170.676 637.631 173.183C636.093 175.689 634.128 178.053 631.735 180.275C629.343 182.44 626.466 184.234 623.105 185.658C619.744 187.025 615.756 187.709 611.142 187.709C605.274 187.709 599.948 186.541 595.163 184.206C590.435 181.813 586.675 178.537 583.884 174.379C581.149 170.163 579.782 165.378 579.782 160.023C579.782 155.181 580.693 150.88 582.516 147.121C584.339 143.361 587.017 140.199 590.549 137.636C594.137 135.015 598.609 133.05 603.964 131.74C609.319 130.373 615.528 129.689 622.592 129.689H636.862ZM727.353 160.451C727.353 158.685 726.84 157.09 725.815 155.666C724.789 154.241 722.881 152.931 720.09 151.735C717.355 150.482 713.396 149.342 708.212 148.317C703.541 147.292 699.183 146.01 695.138 144.472C691.151 142.877 687.676 140.968 684.714 138.747C681.808 136.525 679.53 133.904 677.878 130.885C676.226 127.809 675.4 124.306 675.4 120.375C675.4 116.501 676.226 112.855 677.878 109.438C679.587 106.02 682.008 103 685.141 100.38C688.331 97.7025 692.205 95.6232 696.762 94.1421C701.376 92.604 706.56 91.835 712.314 91.835C720.346 91.835 727.239 93.1167 732.992 95.6802C738.803 98.2437 743.246 101.776 746.323 106.276C749.456 110.719 751.022 115.789 751.022 121.486H726.413C726.413 119.093 725.9 116.957 724.875 115.077C723.906 113.14 722.368 111.631 720.26 110.548C718.21 109.409 715.532 108.839 712.228 108.839C709.494 108.839 707.13 109.324 705.136 110.292C703.142 111.203 701.604 112.457 700.522 114.052C699.496 115.59 698.984 117.299 698.984 119.179C698.984 120.603 699.268 121.885 699.838 123.024C700.465 124.106 701.462 125.103 702.829 126.015C704.196 126.926 705.962 127.781 708.127 128.578C710.348 129.319 713.083 130.002 716.33 130.629C722.995 131.996 728.948 133.791 734.189 136.012C739.43 138.177 743.588 141.139 746.664 144.899C749.74 148.602 751.279 153.472 751.279 159.511C751.279 163.612 750.367 167.372 748.544 170.79C746.721 174.208 744.101 177.199 740.683 179.762C737.265 182.269 733.163 184.234 728.378 185.658C723.65 187.025 718.324 187.709 712.399 187.709C703.797 187.709 696.506 186.171 690.524 183.095C684.6 180.019 680.099 176.116 677.023 171.388C674.004 166.603 672.494 161.704 672.494 156.691H695.822C695.936 160.052 696.79 162.758 698.385 164.809C700.038 166.859 702.117 168.34 704.623 169.252C707.187 170.163 709.95 170.619 712.912 170.619C716.102 170.619 718.751 170.192 720.859 169.337C722.966 168.426 724.561 167.23 725.644 165.749C726.783 164.21 727.353 162.444 727.353 160.451ZM817.245 160.451C817.245 158.685 816.733 157.09 815.707 155.666C814.682 154.241 812.774 152.931 809.982 151.735C807.248 150.482 803.289 149.342 798.105 148.317C793.434 147.292 789.076 146.01 785.031 144.472C781.043 142.877 777.568 140.968 774.606 138.747C771.701 136.525 769.422 133.904 767.77 130.885C766.118 127.809 765.292 124.306 765.292 120.375C765.292 116.501 766.118 112.855 767.77 109.438C769.479 106.02 771.9 103 775.033 100.38C778.224 97.7025 782.097 95.6232 786.655 94.1421C791.269 92.604 796.453 91.835 802.206 91.835C810.239 91.835 817.131 93.1167 822.885 95.6802C828.696 98.2437 833.139 101.776 836.215 106.276C839.348 110.719 840.915 115.789 840.915 121.486H816.305C816.305 119.093 815.793 116.957 814.767 115.077C813.799 113.14 812.261 111.631 810.153 110.548C808.102 109.409 805.425 108.839 802.121 108.839C799.386 108.839 797.022 109.324 795.029 110.292C793.035 111.203 791.497 112.457 790.414 114.052C789.389 115.59 788.876 117.299 788.876 119.179C788.876 120.603 789.161 121.885 789.731 123.024C790.357 124.106 791.354 125.103 792.721 126.015C794.089 126.926 795.855 127.781 798.019 128.578C800.241 129.319 802.975 130.002 806.222 130.629C812.887 131.996 818.84 133.791 824.081 136.012C829.322 138.177 833.481 141.139 836.557 144.899C839.633 148.602 841.171 153.472 841.171 159.511C841.171 163.612 840.26 167.372 838.437 170.79C836.614 174.208 833.993 177.199 830.575 179.762C827.157 182.269 823.056 184.234 818.271 185.658C813.543 187.025 808.216 187.709 802.292 187.709C793.69 187.709 786.398 186.171 780.417 183.095C774.492 180.019 769.992 176.116 766.916 171.388C763.897 166.603 762.387 161.704 762.387 156.691H785.715C785.829 160.052 786.683 162.758 788.278 164.809C789.93 166.859 792.009 168.34 794.516 169.252C797.079 170.163 799.842 170.619 802.804 170.619C805.995 170.619 808.643 170.192 810.751 169.337C812.859 168.426 814.454 167.23 815.536 165.749C816.676 164.21 817.245 162.444 817.245 160.451ZM926.279 167.543L959.946 194.203L943.796 208.217L910.641 181.557L926.279 167.543ZM960.8 120.888V126.784C960.8 136.24 959.518 144.728 956.955 152.248C954.448 159.767 950.831 166.176 946.103 171.474C941.375 176.715 935.792 180.731 929.355 183.522C922.918 186.313 915.768 187.709 907.907 187.709C900.103 187.709 892.953 186.313 886.459 183.522C879.965 180.731 874.354 176.715 869.626 171.474C864.898 166.176 861.223 159.767 858.603 152.248C856.039 144.728 854.758 136.24 854.758 126.784V120.888C854.758 111.374 856.039 102.886 858.603 95.4238C861.223 87.9043 864.869 81.4956 869.54 76.1978C874.212 70.8999 879.794 66.8553 886.288 64.064C892.782 61.2726 899.932 59.877 907.736 59.877C915.597 59.877 922.747 61.2726 929.184 64.064C935.678 66.8553 941.289 70.8999 946.017 76.1978C950.746 81.4956 954.391 87.9043 956.955 95.4238C959.518 102.886 960.8 111.374 960.8 120.888ZM934.909 126.784V120.717C934.909 114.109 934.282 108.298 933.029 103.285C931.833 98.2721 930.067 94.0566 927.731 90.6387C925.453 87.2207 922.633 84.6572 919.272 82.9482C915.911 81.1823 912.066 80.2993 907.736 80.2993C903.407 80.2993 899.561 81.1823 896.2 82.9482C892.839 84.6572 890.02 87.2207 887.741 90.6387C885.462 94.0566 883.725 98.2721 882.529 103.285C881.332 108.298 880.734 114.109 880.734 120.717V126.784C880.734 133.335 881.332 139.145 882.529 144.215C883.725 149.228 885.462 153.472 887.741 156.947C890.077 160.365 892.925 162.957 896.286 164.723C899.704 166.489 903.578 167.372 907.907 167.372C912.236 167.372 916.053 166.489 919.357 164.723C922.718 162.957 925.538 160.365 927.817 156.947C930.152 153.472 931.918 149.228 933.115 144.215C934.311 139.145 934.909 133.335 934.909 126.784ZM1032.49 163.869V93.5439H1057.1V186H1033.94L1032.49 163.869ZM1035.23 144.899L1042.49 144.728C1042.49 150.88 1041.78 156.605 1040.35 161.903C1038.93 167.144 1036.79 171.701 1033.94 175.575C1031.1 179.392 1027.51 182.383 1023.18 184.547C1018.85 186.655 1013.75 187.709 1007.88 187.709C1003.38 187.709 999.224 187.082 995.407 185.829C991.647 184.519 988.4 182.497 985.666 179.762C982.988 176.971 980.881 173.41 979.343 169.081C977.861 164.695 977.121 159.425 977.121 153.273V93.5439H1001.73V153.444C1001.73 156.178 1002.04 158.485 1002.67 160.365C1003.35 162.245 1004.29 163.783 1005.49 164.979C1006.69 166.176 1008.08 167.03 1009.68 167.543C1011.33 168.056 1013.15 168.312 1015.15 168.312C1020.22 168.312 1024.2 167.287 1027.11 165.236C1030.07 163.185 1032.15 160.394 1033.35 156.862C1034.6 153.273 1035.23 149.285 1035.23 144.899ZM1118.45 187.709C1111.28 187.709 1104.84 186.57 1099.14 184.291C1093.45 181.955 1088.6 178.737 1084.62 174.635C1080.69 170.534 1077.67 165.777 1075.56 160.365C1073.45 154.896 1072.4 149.086 1072.4 142.934V139.516C1072.4 132.509 1073.39 126.1 1075.39 120.29C1077.38 114.479 1080.23 109.438 1083.93 105.165C1087.69 100.893 1092.25 97.617 1097.6 95.3384C1102.96 93.0028 1109 91.835 1115.72 91.835C1122.27 91.835 1128.08 92.9173 1133.15 95.082C1138.22 97.2467 1142.47 100.323 1145.88 104.311C1149.36 108.298 1151.98 113.083 1153.74 118.666C1155.51 124.192 1156.39 130.344 1156.39 137.123V147.377H1082.91V130.971H1132.21V129.091C1132.21 125.673 1131.58 122.625 1130.33 119.948C1129.14 117.213 1127.31 115.049 1124.86 113.454C1122.41 111.859 1119.28 111.061 1115.46 111.061C1112.22 111.061 1109.42 111.773 1107.09 113.197C1104.75 114.621 1102.85 116.615 1101.36 119.179C1099.94 121.742 1098.86 124.761 1098.12 128.236C1097.43 131.654 1097.09 135.414 1097.09 139.516V142.934C1097.09 146.636 1097.6 150.054 1098.63 153.188C1099.71 156.321 1101.22 159.027 1103.16 161.305C1105.15 163.584 1107.54 165.35 1110.34 166.603C1113.18 167.856 1116.4 168.483 1119.99 168.483C1124.44 168.483 1128.57 167.628 1132.38 165.919C1136.26 164.153 1139.59 161.505 1142.38 157.973L1154.34 170.961C1152.41 173.752 1149.76 176.43 1146.4 178.993C1143.09 181.557 1139.1 183.664 1134.43 185.316C1129.76 186.911 1124.44 187.709 1118.45 187.709ZM1220.39 160.451C1220.39 158.685 1219.88 157.09 1218.86 155.666C1217.83 154.241 1215.92 152.931 1213.13 151.735C1210.4 150.482 1206.44 149.342 1201.25 148.317C1196.58 147.292 1192.23 146.01 1188.18 144.472C1184.19 142.877 1180.72 140.968 1177.76 138.747C1174.85 136.525 1172.57 133.904 1170.92 130.885C1169.27 127.809 1168.44 124.306 1168.44 120.375C1168.44 116.501 1169.27 112.855 1170.92 109.438C1172.63 106.02 1175.05 103 1178.18 100.38C1181.37 97.7025 1185.25 95.6232 1189.8 94.1421C1194.42 92.604 1199.6 91.835 1205.36 91.835C1213.39 91.835 1220.28 93.1167 1226.03 95.6802C1231.84 98.2437 1236.29 101.776 1239.36 106.276C1242.5 110.719 1244.06 115.789 1244.06 121.486H1219.45C1219.45 119.093 1218.94 116.957 1217.92 115.077C1216.95 113.14 1215.41 111.631 1213.3 110.548C1211.25 109.409 1208.57 108.839 1205.27 108.839C1202.54 108.839 1200.17 109.324 1198.18 110.292C1196.18 111.203 1194.65 112.457 1193.56 114.052C1192.54 115.59 1192.03 117.299 1192.03 119.179C1192.03 120.603 1192.31 121.885 1192.88 123.024C1193.51 124.106 1194.5 125.103 1195.87 126.015C1197.24 126.926 1199 127.781 1201.17 128.578C1203.39 129.319 1206.12 130.002 1209.37 130.629C1216.04 131.996 1221.99 133.791 1227.23 136.012C1232.47 138.177 1236.63 141.139 1239.71 144.899C1242.78 148.602 1244.32 153.472 1244.32 159.511C1244.32 163.612 1243.41 167.372 1241.59 170.79C1239.76 174.208 1237.14 177.199 1233.72 179.762C1230.31 182.269 1226.21 184.234 1221.42 185.658C1216.69 187.025 1211.37 187.709 1205.44 187.709C1196.84 187.709 1189.55 186.171 1183.57 183.095C1177.64 180.019 1173.14 176.116 1170.07 171.388C1167.05 166.603 1165.54 161.704 1165.54 156.691H1188.86C1188.98 160.052 1189.83 162.758 1191.43 164.809C1193.08 166.859 1195.16 168.34 1197.67 169.252C1200.23 170.163 1202.99 170.619 1205.95 170.619C1209.14 170.619 1211.79 170.192 1213.9 169.337C1216.01 168.426 1217.6 167.23 1218.69 165.749C1219.83 164.21 1220.39 162.444 1220.39 160.451ZM1305.59 93.5439V110.976H1251.75V93.5439H1305.59ZM1265.08 70.729H1289.69V158.144C1289.69 160.821 1290.04 162.872 1290.72 164.296C1291.46 165.72 1292.54 166.717 1293.97 167.287C1295.39 167.799 1297.19 168.056 1299.35 168.056C1300.89 168.056 1302.26 167.999 1303.45 167.885C1304.7 167.714 1305.76 167.543 1306.61 167.372L1306.7 185.487C1304.59 186.171 1302.31 186.712 1299.86 187.111C1297.41 187.51 1294.71 187.709 1291.74 187.709C1286.33 187.709 1281.6 186.826 1277.56 185.06C1273.57 183.237 1270.5 180.332 1268.33 176.344C1266.17 172.357 1265.08 167.116 1265.08 160.622V70.729Z" fill="white"/>
<mask id="mask0_51_67" style="mask-type:alpha" maskUnits="userSpaceOnUse" x="0" y="0" width="319" height="272">
<rect x="187" y="175.908" width="67" height="125" transform="rotate(-40 187 175.908)" fill="#D9D9D9"/>
<path fill-rule="evenodd" clip-rule="evenodd" d="M93.4469 5.99183C104.066 2.65194 115.002 0.671301 126 0.0525254V66.9891C121.767 67.4676 117.569 68.3524 113.466 69.6428C100.868 73.6052 89.727 81.2145 81.4531 91.5084C73.1793 101.802 68.1437 114.319 66.9833 127.474C65.8228 140.63 68.5896 153.835 74.9336 165.418C77.1418 169.45 79.7489 173.222 82.7034 176.685L39.516 228.153C30.4246 219.141 22.6273 208.82 16.4112 197.47C3.72782 174.312 -1.8036 147.913 0.516444 121.611C2.83649 95.3097 12.9038 70.2866 29.4453 49.7065C45.9867 29.1264 68.2594 13.9136 93.4469 5.99183ZM49.967 237.479C56.7217 242.897 64.0196 247.671 71.772 251.714C95.1838 263.922 121.69 268.914 147.939 266.059C174.188 263.203 199.001 252.628 219.239 235.67L176.386 184.525C166.263 193.007 153.852 198.297 140.722 199.725C127.593 201.153 114.335 198.656 102.624 192.55C99.1866 190.757 95.9274 188.677 92.8779 186.339L49.967 237.479ZM152.232 69.2477C148.218 68.0747 144.123 67.2869 140 66.8837V0C150.431 0.508413 160.82 2.2416 170.949 5.20177C196.293 12.6084 218.871 27.364 235.828 47.6027L184.683 90.4561C176.201 80.333 164.908 72.9524 152.232 69.2477Z" fill="#D9D9D9"/>
</mask>
<g mask="url(#mask0_51_67)">
<rect x="132" y="-60" width="187" height="173" fill="#3780FF"/>
<path d="M-54 -40H133V87L111.5 151.5L-0.5 287.5L-54 -40Z" fill="#00BEFF"/>
<path d="M103 163H166L259 272L237.5 336.5L20.5 255L103 163Z" fill="#23CEC9"/>
<path d="M253.5 99H316.5L342 226L273 290L176.5 176L253.5 99Z" fill="#00F076"/>
</g>
</svg>
